<?xml version="1.0" encoding="UTF-8" standalone="no"?>
<!DOCTYPE svg PUBLIC "-//W3C//DTD SVG 1.1//EN" "http://www.w3.org/Graphics/SVG/1.1/DTD/svg11.dtd">
<svg width="300.00" height="300.00" viewBox="0.00 0.00 300.00 300.00" xmlns="http://www.w3.org/2000/svg" xmlns:xlink="http://www.w3.org/1999/xlink">
<g stroke-linecap="round" id="レイヤー_2">
<path d="M88.00,94.01 C62.81,13.45 162.37,-10.31 190.29,43.62 C254.77,14.35 299.60,100.29 252.39,136.94 C306.80,156.28 278.51,276.80 213.38,250.54 C178.95,315.15 103.81,275.81 117.17,216.77 C60.91,216.84 33.29,126.39 88.00,94.01 Z" fill="none" stroke="rgb(48, 48, 48)" stroke-width="7.09" stroke-opacity="1.00" stroke-linejoin="round"/>
<path d="M28.72,256.65 C30.28,256.67 33.97,257.65 35.33,258.42 C36.67,259.21 39.37,261.91 40.17,263.25 C40.93,264.61 41.92,268.30 41.94,269.86 C41.92,271.42 40.93,275.10 40.17,276.46 C39.37,277.80 36.67,280.50 35.33,281.30 C33.97,282.06 30.28,283.05 28.72,283.07 C27.17,283.05 23.48,282.06 22.12,281.30 C20.78,280.50 18.08,277.80 17.28,276.46 C16.52,275.10 15.53,271.42 15.51,269.86 C15.53,268.30 16.52,264.61 17.28,263.25 C18.08,261.91 20.78,259.21 22.12,258.42 C23.48,257.65 27.17,256.67 28.72,256.65 Z" fill="none" stroke="rgb(48, 48, 48)" stroke-width="7.09" stroke-opacity="1.00" stroke-linejoin="round"/>
<path d="M75.97,225.69 C79.16,225.72 86.08,228.24 88.74,230.59 C91.63,233.24 94.82,239.02 95.57,242.96 C96.19,246.54 94.82,254.07 93.25,256.97 C91.63,259.85 86.08,264.85 82.80,266.08 C79.16,267.37 72.78,267.37 69.13,266.08 C65.85,264.85 60.30,259.85 58.68,256.97 C57.11,254.07 55.74,246.54 56.36,242.96 C57.11,239.02 60.30,233.24 63.19,230.59 C65.85,228.24 72.78,225.72 75.97,225.69 Z" fill="none" stroke="rgb(48, 48, 48)" stroke-width="7.09" stroke-opacity="1.00" stroke-linejoin="round"/>
</g>
</svg>
