<?xml version="1.0" encoding="UTF-8" standalone="no"?>
<!DOCTYPE svg PUBLIC "-//W3C//DTD SVG 1.1//EN" "http://www.w3.org/Graphics/SVG/1.1/DTD/svg11.dtd">
<svg width="300.00" height="300.00" viewBox="0.00 0.00 300.00 300.00" xmlns="http://www.w3.org/2000/svg" xmlns:xlink="http://www.w3.org/1999/xlink">
<g stroke-linecap="round" id="レイヤー_2">
<path d="M77.52,230.94 C63.18,214.36 59.28,196.32 69.47,178.37 C40.65,138.63 50.87,83.69 82.39,67.62 C93.53,16.70 160.94,-3.79 196.11,41.58 C248.21,42.03 267.68,110.11 244.85,144.88 C262.34,179.10 243.25,246.76 201.63,248.25 C199.73,281.03 138.02,294.39 117.63,257.52 C107.28,257.61 98.77,254.41 91.92,249.09" fill="none" stroke="rgb(48, 48, 48)" stroke-width="7.09" stroke-opacity="1.00" stroke-linejoin="round"/>
</g>
<g stroke-linecap="round" id="レイヤー_5">
<path d="M91.27,252.14 C90.97,253.99 90.12,257.04 89.28,258.68 C88.13,260.91 82.24,266.09 79.08,267.24 C75.71,268.40 69.28,268.37 65.77,267.18 C62.58,266.03 57.16,261.36 55.58,258.68 C54.05,255.98 52.72,248.96 53.32,245.61 C54.03,242.06 57.33,236.19 59.82,234.03 C63.73,230.77 73.38,229.48 73.40,229.47" fill="none" stroke="rgb(48, 48, 48)" stroke-width="7.09" stroke-opacity="1.00" stroke-linejoin="round"/>
<path d="M34.64,255.87 C37.37,255.91 42.09,258.64 43.48,260.98 C44.82,263.36 44.82,268.82 43.48,271.20 C42.09,273.54 37.37,276.27 34.64,276.31 C31.91,276.27 27.18,273.54 25.79,271.20 C24.46,268.82 24.46,263.36 25.79,260.98 C27.18,258.64 31.91,255.91 34.64,255.87 Z" fill="none" stroke="rgb(48, 48, 48)" stroke-width="7.09" stroke-opacity="1.00" stroke-linejoin="round"/>
</g>
</svg>
